<?xml version="1.0" encoding="UTF-8"?>
<svg xmlns="http://www.w3.org/2000/svg" xmlns:xlink="http://www.w3.org/1999/xlink" width="88px" height="71px" viewBox="0 0 87 71" version="1.1">
<g id="surface1">
<path style=" stroke:none;fill-rule:nonzero;fill:rgb(0%,0%,0%);fill-opacity:1;" d="M 48.863281 10.226562 C 48.050781 10.457031 46.535156 11.5 45.472656 12.523438 L 43.601562 14.410156 L 41.527344 12.726562 C 36.164062 8.390625 29.109375 11.757812 29.210938 18.617188 L 29.234375 20.785156 L 27.3125 20.785156 C 22.660156 20.785156 19.550781 25.121094 20.714844 30.015625 C 21.773438 34.453125 26.503906 38.714844 30.398438 38.765625 C 31.539062 38.765625 31.6875 38.941406 31.488281 40.089844 C 31.257812 41.261719 31.058594 41.367188 29.261719 41.160156 C 27.0625 40.90625 24.785156 42.257812 24.808594 43.761719 C 24.808594 44.476562 24.910156 44.453125 25.390625 43.609375 C 26.25 42.078125 26.808594 41.851562 29.640625 41.824219 L 32.195312 41.824219 L 32.726562 39.476562 C 33.257812 37.183594 33.257812 37.15625 32.042969 37.464844 C 27.164062 38.6875 21.34375 32.949219 21.875 27.414062 C 22.28125 23.054688 25.847656 21.015625 30.273438 22.621094 C 31.359375 23.027344 31.410156 22.976562 30.828125 21.90625 C 29.996094 20.324219 30.5 16.042969 31.714844 14.382812 C 34.34375 10.8125 39.910156 11.476562 42.765625 15.734375 C 43.550781 16.882812 44.003906 17.265625 44.003906 16.703125 C 44.003906 15.175781 47.621094 11.859375 49.746094 11.449219 C 54.070312 10.632812 57.636719 14.742188 56.980469 19.6875 L 56.675781 21.855469 L 58.523438 21.089844 C 63.203125 19.128906 68.109375 23.84375 66.996094 29.25 C 66.058594 33.765625 61.609375 37.820312 58.472656 37.03125 C 56.953125 36.648438 57.738281 41.621094 59.28125 42.105469 C 60.367188 42.460938 60.34375 42.386719 60.21875 48.074219 C 60.089844 52.714844 60.242188 53.097656 61.785156 51.695312 C 62.671875 50.902344 62.796875 50.902344 63.734375 51.769531 C 64.363281 52.332031 64.945312 52.535156 65.175781 52.253906 C 65.78125 51.59375 67.273438 45.855469 67.273438 44.296875 C 67.273438 42.359375 68.992188 41.007812 70.664062 41.59375 C 72.027344 42.078125 76.730469 49.296875 76.101562 49.933594 C 75.695312 50.34375 74.65625 48.914062 72.734375 45.292969 C 70.8125 41.644531 68.285156 40.574219 68.285156 43.429688 C 68.285156 45.34375 66.1875 52.789062 65.402344 53.65625 C 63.65625 55.621094 65.984375 56.71875 68.160156 54.957031 C 68.917969 54.347656 68.992188 53.046875 68.285156 53.046875 C 67.324219 53.046875 67.777344 52.179688 69.070312 51.59375 C 70.964844 50.726562 71.371094 50.851562 71.015625 52.28125 C 70.585938 53.988281 71.394531 53.914062 74.152344 52.050781 C 76.707031 50.316406 77.136719 50.777344 74.808594 52.738281 C 73.875 53.554688 72.636719 54.066406 71.648438 54.066406 C 70.613281 54.089844 69.652344 54.523438 68.867188 55.339844 C 68.007812 56.257812 67.148438 56.617188 65.753906 56.617188 C 64.695312 56.617188 63.734375 56.871094 63.632812 57.152344 C 63.300781 58.199219 56.726562 59.703125 55.363281 59.066406 C 54.375 58.605469 53.945312 58.65625 53.1875 59.34375 C 51.820312 60.59375 45.398438 60.695312 44.105469 59.5 C 43.246094 58.734375 43.070312 58.707031 42.488281 59.394531 C 41.730469 60.339844 38.390625 60.441406 37.53125 59.574219 C 36.621094 58.65625 36.191406 59.523438 36.824219 60.953125 C 37.457031 62.355469 40.539062 62.761719 42.511719 61.691406 C 43.246094 61.308594 43.804688 61.386719 44.765625 62.023438 C 46.382812 63.09375 51.71875 62.8125 52.933594 61.613281 C 53.566406 60.976562 54.046875 60.902344 55.160156 61.285156 C 57.003906 61.945312 61.683594 61.003906 63.402344 59.652344 C 64.085938 59.089844 65.226562 58.65625 65.933594 58.65625 C 66.617188 58.65625 67.878906 58.070312 68.691406 57.382812 C 69.523438 56.667969 70.789062 56.105469 71.496094 56.105469 C 73.546875 56.105469 75.265625 55.085938 76.050781 53.351562 C 77.515625 50.164062 77.492188 49.679688 75.898438 47.28125 C 75.039062 46.03125 74.355469 44.808594 74.355469 44.605469 C 74.355469 44.402344 73.773438 43.457031 73.066406 42.511719 C 70.914062 39.65625 66.765625 40.550781 66.765625 43.863281 C 66.765625 44.527344 66.414062 46.363281 65.957031 47.945312 L 65.175781 50.828125 L 60.949219 50.828125 L 61.128906 46.976562 C 61.28125 43.636719 61.152344 42.921875 60.242188 41.875 C 58.472656 39.835938 58.824219 38.558594 61.378906 37.871094 C 70.964844 35.296875 70.082031 18.414062 60.417969 19.507812 L 58.296875 19.765625 L 58.042969 17.238281 C 57.5625 12.265625 53.160156 8.902344 48.863281 10.226562 Z M 70.132812 48.683594 C 69.980469 49.117188 69.601562 49.476562 69.320312 49.476562 C 68.738281 49.476562 68.589844 47.792969 69.144531 47.257812 C 69.699219 46.695312 70.460938 47.792969 70.132812 48.683594 Z M 70.132812 48.683594 "/>
<path style=" stroke:none;fill-rule:nonzero;fill:rgb(0%,0%,0%);fill-opacity:1;" d="M 47.671875 14.484375 C 45.246094 16.753906 45.496094 24.484375 48 24.484375 C 48.253906 24.484375 48.558594 24.96875 48.710938 25.554688 C 49.265625 27.621094 53.4375 25.65625 54.832031 22.722656 C 57.992188 16.015625 52.65625 9.894531 47.671875 14.484375 Z M 52.300781 16.195312 C 52.527344 16.398438 52.957031 16.578125 53.289062 16.578125 C 53.617188 16.578125 53.945312 17.46875 54.019531 18.566406 C 54.171875 20.171875 54.046875 20.480469 53.414062 20.222656 C 52.90625 20.046875 52.402344 20.324219 52.046875 20.988281 C 51.390625 22.238281 50.480469 21.347656 50.960938 19.941406 C 51.136719 19.382812 50.960938 19.433594 50.355469 20.148438 C 49.570312 21.066406 49.519531 21.066406 49.773438 20.222656 C 49.949219 19.714844 50.074219 18.921875 50.074219 18.4375 C 50.101562 17.722656 50.152344 17.699219 50.582031 18.363281 C 50.960938 18.949219 51.0625 18.71875 51.085938 17.46875 C 51.085938 15.863281 51.515625 15.402344 52.300781 16.195312 Z M 52.300781 16.195312 "/>
<path style=" stroke:none;fill-rule:nonzero;fill:rgb(0%,0%,0%);fill-opacity:1;" d="M 33.863281 14.664062 C 31.664062 16.652344 32.421875 20.582031 35.660156 23.84375 C 36.847656 25.042969 37.558594 26.039062 37.226562 26.039062 C 36.925781 26.0625 37.175781 26.292969 37.808594 26.546875 C 42.234375 28.332031 45.167969 21.066406 41.804688 16.628906 C 39.148438 13.132812 36.34375 12.417969 33.863281 14.664062 Z M 39.148438 17.1875 C 39.78125 16.933594 39.960938 17.214844 39.960938 18.589844 C 39.960938 19.535156 40.035156 20.632812 40.136719 20.988281 C 40.210938 21.371094 40.210938 21.5 40.085938 21.269531 C 39.960938 21.039062 39.53125 21.140625 39.148438 21.472656 C 38.238281 22.238281 37.53125 21.625 38.339844 20.808594 C 39.300781 19.839844 39.050781 19.304688 37.9375 19.890625 C 37.050781 20.375 36.925781 20.273438 36.925781 19.179688 C 36.925781 17.34375 37.480469 16.09375 37.960938 16.855469 C 38.164062 17.214844 38.695312 17.34375 39.148438 17.1875 Z M 39.148438 17.1875 "/>
<path style=" stroke:none;fill-rule:nonzero;fill:rgb(0%,0%,0%);fill-opacity:1;" d="M 58.699219 22.875 C 54.90625 24.917969 54.351562 32.617188 57.914062 33.996094 C 58.296875 34.148438 58.496094 34.582031 58.34375 34.988281 C 57.839844 36.265625 60.976562 35.832031 62.695312 34.378906 C 68.789062 29.199219 65.351562 19.28125 58.699219 22.875 Z M 62.671875 25.886719 C 63.152344 26.703125 63.203125 26.703125 63.253906 25.757812 C 63.277344 24.890625 63.351562 24.917969 63.808594 26.011719 C 64.085938 26.703125 64.136719 28.078125 63.933594 29.074219 C 63.605469 30.78125 63.554688 30.808594 63.203125 29.582031 L 62.820312 28.308594 L 62.773438 29.660156 C 62.722656 31.214844 61.761719 31.777344 60.621094 30.910156 C 59.761719 30.296875 59.507812 27.722656 60.269531 27.238281 C 60.519531 27.085938 60.570312 26.753906 60.417969 26.496094 C 60.269531 26.21875 60.496094 26.011719 60.949219 26.011719 C 61.40625 26.011719 61.632812 25.785156 61.457031 25.503906 C 61.28125 25.222656 61.378906 24.992188 61.660156 24.992188 C 61.9375 24.992188 62.390625 25.402344 62.671875 25.886719 Z M 62.671875 25.886719 "/>
<path style=" stroke:none;fill-rule:nonzero;fill:rgb(0%,0%,0%);fill-opacity:1;" d="M 24.886719 24.484375 C 22.636719 26.625 26.152344 34.683594 29.363281 34.683594 C 29.617188 34.683594 29.691406 35.015625 29.515625 35.449219 C 28.90625 37.082031 32.648438 36.394531 34.140625 34.582031 C 38.289062 29.609375 29.539062 20.046875 24.886719 24.484375 Z M 31.082031 28.078125 C 31.5625 27.671875 31.714844 28.003906 31.714844 29.660156 C 31.714844 31.75 31.714844 31.75 30.855469 30.601562 C 30.375 29.964844 29.742188 29.582031 29.4375 29.761719 C 28.984375 30.066406 28.933594 28.996094 29.3125 27.03125 C 29.335938 26.878906 29.617188 27.1875 29.894531 27.695312 C 30.296875 28.359375 30.601562 28.488281 31.082031 28.078125 Z M 31.082031 28.078125 "/>
<path style=" stroke:none;fill-rule:nonzero;fill:rgb(0%,0%,0%);fill-opacity:1;" d="M 43.5 25.246094 C 42.464844 27.1875 40.210938 28.207031 37.683594 27.925781 L 35.585938 27.695312 L 36.113281 29.660156 C 36.570312 31.367188 37.429688 32.386719 37.429688 31.191406 C 37.429688 30.578125 41.933594 28.230469 43.878906 27.824219 C 45.800781 27.414062 48.582031 28.207031 51.0625 29.890625 C 52.023438 30.550781 52.832031 31.035156 52.882812 30.960938 C 52.933594 30.910156 53.109375 29.761719 53.289062 28.410156 C 53.589844 25.960938 53.589844 25.960938 52.476562 26.753906 C 50.253906 28.332031 45.421875 27.210938 44.585938 24.941406 C 44.234375 23.972656 44.183594 23.972656 43.5 25.246094 Z M 43.5 25.246094 "/>
<path style=" stroke:none;fill-rule:nonzero;fill:rgb(0%,0%,0%);fill-opacity:1;" d="M 43.375 29.558594 C 37.605469 31.417969 33.257812 38.28125 35.355469 42.234375 L 35.9375 43.328125 L 37.558594 42.335938 C 39.53125 41.109375 40.871094 41.058594 42.335938 42.078125 C 43.296875 42.769531 43.574219 42.769531 44.867188 42.003906 C 48.304688 40.015625 51.847656 42.4375 50.632812 45.929688 C 49.519531 49.167969 50.65625 50.011719 53.3125 47.894531 C 54.550781 46.898438 54.601562 46.746094 53.894531 45.929688 C 52.300781 44.144531 53.917969 41.085938 56.144531 41.671875 C 57.15625 41.953125 57.207031 41.824219 56.902344 39.988281 C 55.84375 33.816406 48.28125 27.976562 43.375 29.558594 Z M 48.304688 32.746094 C 49.417969 32.820312 50.328125 33.179688 50.328125 33.484375 C 50.328125 33.816406 50.859375 34.710938 51.492188 35.449219 C 53.339844 37.566406 53.917969 39.171875 53.136719 39.9375 C 52.578125 40.421875 52.527344 40.398438 52.832031 39.785156 C 53.007812 39.351562 52.808594 39.476562 52.328125 40.039062 C 51.464844 41.058594 51.464844 41.035156 51.746094 39.886719 C 51.945312 38.992188 51.871094 38.839844 51.414062 39.222656 C 51.035156 39.53125 50.503906 39.554688 50.074219 39.273438 C 49.695312 39.042969 49.191406 38.941406 48.988281 39.070312 C 48.785156 39.199219 48.480469 39.070312 48.304688 38.765625 C 48.128906 38.484375 47.269531 38.253906 46.382812 38.253906 C 45.09375 38.28125 44.917969 38.382812 45.523438 38.816406 C 46.128906 39.273438 46.078125 39.300781 45.269531 39.019531 C 44.714844 38.816406 43.980469 38.636719 43.625 38.613281 C 43.273438 38.613281 42.996094 38.253906 42.996094 37.820312 C 42.996094 37.207031 42.816406 37.257812 42.261719 38.023438 C 41.753906 38.6875 41.503906 38.789062 41.503906 38.332031 C 41.476562 37.769531 41.324219 37.746094 40.769531 38.203125 C 40.238281 38.664062 40.011719 38.613281 39.78125 37.972656 C 39.605469 37.515625 39.679688 37.3125 39.960938 37.488281 C 40.238281 37.667969 40.464844 37.414062 40.464844 36.953125 C 40.464844 36.496094 41.273438 35.347656 42.285156 34.402344 C 45.015625 31.851562 45.21875 31.699219 45.777344 32.160156 C 46.054688 32.386719 47.191406 32.644531 48.304688 32.746094 Z M 48.304688 32.746094 "/>
<path style=" stroke:none;fill-rule:nonzero;fill:rgb(0%,0%,0%);fill-opacity:1;" d="M 17.046875 41.210938 C 16.589844 41.722656 15.882812 43.074219 15.476562 44.246094 C 15.074219 45.421875 14.238281 47.054688 13.632812 47.867188 C 11.507812 50.777344 14.339844 56.488281 17.324219 55.316406 C 17.730469 55.164062 19.019531 55.851562 20.257812 56.898438 C 22.253906 58.582031 22.6875 58.734375 24.632812 58.453125 C 25.898438 58.300781 26.808594 58.375 26.808594 58.65625 C 26.808594 60.773438 33.179688 61.128906 33.484375 59.011719 C 33.585938 58.324219 34.042969 57.839844 34.699219 57.738281 C 36.496094 57.484375 37.808594 50.828125 36.292969 49.601562 C 34.167969 47.867188 32.523438 51.695312 33.863281 55.238281 C 35.101562 58.582031 30.550781 59.933594 27.3125 57.203125 C 25.949219 56.03125 25.390625 55.851562 24.710938 56.257812 C 23.722656 56.898438 20.308594 55.570312 18.890625 53.988281 C 18.4375 53.480469 17.550781 53.046875 16.945312 53.046875 C 15.855469 53.046875 13.152344 50.953125 13.152344 50.113281 C 13.152344 49.859375 13.734375 48.890625 14.441406 47.917969 C 15.125 46.949219 15.957031 45.320312 16.289062 44.273438 C 18.132812 38.050781 21.445312 40.550781 24.757812 50.625 C 26.226562 55.113281 27.3125 55.085938 27.3125 50.570312 C 27.3125 49.117188 27.0625 48.582031 26.175781 48.199219 C 25.492188 47.894531 24.988281 47.15625 24.886719 46.3125 C 24.785156 45.445312 24.480469 45.039062 24.078125 45.191406 C 23.699219 45.34375 23.066406 44.605469 22.507812 43.355469 C 21.144531 40.269531 18.714844 39.324219 17.046875 41.210938 Z M 17.046875 41.210938 "/>
<path style=" stroke:none;fill-rule:nonzero;fill:rgb(0%,0%,0%);fill-opacity:1;" d="M 18.082031 41.875 C 17.601562 42.15625 17.199219 42.84375 17.199219 43.40625 C 17.199219 44.707031 14.796875 49.476562 14.164062 49.476562 C 13.152344 49.476562 13.707031 50.417969 15.277344 51.4375 C 17.019531 52.535156 18.132812 52.410156 17.148438 51.210938 C 16.238281 50.113281 16.96875 49.757812 18.691406 50.496094 C 20.308594 51.160156 20.664062 51.796875 19.601562 52.152344 C 18.613281 52.511719 20.5625 54.449219 22.609375 55.113281 C 24.582031 55.773438 25.238281 55.441406 24.457031 54.167969 C 24.179688 53.683594 23.21875 50.980469 22.355469 48.175781 C 20.636719 42.640625 19.574219 41.058594 18.082031 41.875 Z M 18.082031 41.875 "/>
<path style=" stroke:none;fill-rule:nonzero;fill:rgb(0%,0%,0%);fill-opacity:1;" d="M 26.277344 43.378906 C 24.835938 46.132812 26.074219 48.378906 27.894531 46.289062 L 28.90625 45.140625 L 28.65625 49.375 C 28.527344 51.695312 28.148438 53.9375 27.820312 54.320312 C 26.582031 55.800781 30.121094 58.734375 32.167969 57.941406 C 32.980469 57.636719 33.128906 55.800781 32.371094 55.339844 C 31.6875 54.90625 31.714844 45.90625 32.371094 45.90625 C 32.675781 45.90625 33.128906 46.492188 33.410156 47.230469 C 34.140625 49.195312 35.152344 48.457031 35.101562 45.957031 C 35.054688 43.175781 34.800781 42.996094 30.449219 42.71875 C 27.261719 42.511719 26.707031 42.589844 26.277344 43.378906 Z M 26.277344 43.378906 "/>
<path style=" stroke:none;fill-rule:nonzero;fill:rgb(0%,0%,0%);fill-opacity:1;" d="M 38.011719 43.378906 C 37.101562 43.761719 36.925781 44.09375 37.226562 44.757812 C 38.113281 46.621094 38.0625 55.621094 37.175781 56.617188 C 36.066406 57.839844 37.328125 59.167969 39.628906 59.167969 C 41.984375 59.167969 42.539062 58.402344 41.703125 56.414062 C 40.921875 54.5 41.199219 47.410156 42.132812 45.472656 C 43.121094 43.457031 40.792969 42.257812 38.011719 43.378906 Z M 38.011719 43.378906 "/>
<path style=" stroke:none;fill-rule:nonzero;fill:rgb(0%,0%,0%);fill-opacity:1;" d="M 45.144531 43.355469 C 43.828125 43.914062 43.675781 44.988281 44.765625 45.90625 C 45.648438 46.644531 45.878906 56.335938 45.015625 56.871094 C 44.738281 57.050781 44.511719 57.636719 44.511719 58.171875 C 44.511719 59.804688 52.351562 59.675781 52.78125 58.019531 C 53.71875 54.550781 52.578125 51.898438 51.414062 54.753906 C 50.605469 56.691406 49.394531 57.203125 48.863281 55.800781 C 48.355469 54.472656 48.53125 45.980469 49.0625 45.648438 C 49.796875 45.191406 49.695312 43.355469 48.9375 43.355469 C 48.582031 43.355469 47.851562 43.226562 47.292969 43.125 C 46.738281 42.996094 45.777344 43.101562 45.144531 43.355469 Z M 45.144531 43.355469 "/>
<path style=" stroke:none;fill-rule:nonzero;fill:rgb(0%,0%,0%);fill-opacity:1;" d="M 54.628906 43.609375 C 54.097656 44.246094 54.121094 44.554688 54.78125 45.269531 C 55.640625 46.261719 56.144531 54.421875 55.460938 56.488281 C 54.832031 58.375 55.4375 58.554688 59.257812 57.636719 C 63.203125 56.71875 64.164062 55.570312 63.480469 52.636719 C 63.152344 51.261719 62.039062 51.386719 61.785156 52.84375 C 61.558594 54.089844 60.75 55.085938 59.9375 55.085938 C 59.027344 55.085938 58.574219 46.515625 59.40625 45.140625 C 60.722656 42.996094 56.296875 41.59375 54.628906 43.609375 Z M 54.628906 43.609375 "/>
<path style=" stroke:none;fill-rule:nonzero;fill:rgb(0%,0%,0%);fill-opacity:1;" d="M 42.816406 46.746094 C 42.03125 47.5625 42.488281 49.476562 43.5 49.476562 C 44.585938 49.476562 44.664062 49.296875 44.183594 47.5625 C 43.878906 46.390625 43.449219 46.132812 42.816406 46.746094 Z M 42.816406 46.746094 "/>
<path style=" stroke:none;fill-rule:nonzero;fill:rgb(0%,0%,0%);fill-opacity:1;" d="M 51.796875 50.011719 C 49.925781 50.878906 49.773438 51.109375 49.972656 52.535156 C 50.175781 53.988281 50.277344 54.039062 51.0625 53.328125 C 52.199219 52.28125 53.4375 52.332031 54.070312 53.429688 C 54.476562 54.117188 54.601562 53.710938 54.601562 51.644531 C 54.628906 48.660156 54.679688 48.683594 51.796875 50.011719 Z M 51.796875 50.011719 "/>
<path style=" stroke:none;fill-rule:nonzero;fill:rgb(0%,0%,0%);fill-opacity:1;" d="M 43.121094 50.851562 C 42.335938 51.160156 42.285156 54.78125 43.042969 56.207031 C 43.855469 57.714844 44.488281 56.488281 44.511719 53.453125 C 44.511719 51.003906 44.234375 50.46875 43.121094 50.851562 Z M 43.121094 50.851562 "/>
</g>
</svg>
